<svg width="486" height="73" viewBox="0 0 486 73" fill="none" xmlns="http://www.w3.org/2000/svg">
<path fill-rule="evenodd" clip-rule="evenodd" d="M95.3197 2.33973C91.8884 2.55837 88.9523 3.15383 87.5548 3.91461C85.79 4.875 84.8544 6.81738 84.257 10.7607C84.0547 12.096 84.026 14.5818 83.9802 34.8558C83.9201 61.4035 83.9453 62.1323 85.0391 65.416C86.0036 68.3116 87.5765 69.4845 91.4619 70.2054C94.553 70.779 99.7296 71.01 104.056 70.7675C109.373 70.4695 112.292 69.803 114.009 68.4946C115.092 67.669 116.085 65.4226 116.53 62.7931C116.89 60.6638 117.026 56.4941 116.984 48.8245L116.945 41.5365H109.725H102.504L102.437 49.9042C102.375 57.5603 102.349 58.3088 102.132 58.7064C101.84 59.2394 101.537 59.4104 100.71 59.5084C99.7338 59.624 99.1228 59.3129 98.7533 58.5126L98.4552 57.867V36.4079C98.4552 16.1745 98.4688 14.9134 98.6948 14.3279C98.9757 13.5999 99.3234 13.3968 100.288 13.3968C101.264 13.3968 101.859 13.6883 102.138 14.3029C102.34 14.7491 102.378 15.4976 102.437 20.2124L102.504 25.6109H109.725H116.945L116.985 21.1572C117.077 10.8451 116.444 6.93966 114.34 4.83532C112.935 3.43077 110.104 2.67133 105.001 2.32988C102.759 2.1798 97.7481 2.18493 95.3197 2.33973ZM170.863 2.34297C166.028 2.68389 162.944 3.5633 161.725 4.94883C160.711 6.10019 160.023 7.91868 159.576 10.6301C159.283 12.4036 159.141 24.4006 159.388 26.5235C159.829 30.3134 161.133 32.9669 163.469 34.8258C163.941 35.2012 166.967 36.9947 170.193 38.8113C173.419 40.6279 176.337 42.3263 176.677 42.5854C177.957 43.5616 178.037 44.1361 177.987 52.0641C177.95 57.8967 177.933 58.2976 177.69 58.6978C176.916 59.9771 174.823 60.008 174.172 58.7496C173.786 58.0033 173.705 56.4559 173.701 49.7355L173.697 43.0886H166.467H159.237L159.291 51.9623C159.35 61.559 159.39 62.1743 160.141 64.7661C160.948 67.5493 161.944 68.7081 164.257 69.5521C166.748 70.461 170.157 70.8135 176.396 70.807C185.117 70.7979 187.924 70.2398 189.856 68.1309C190.671 67.2419 191.263 66.2035 191.583 65.105C192.077 63.4053 192.119 62.3839 192.119 52.1311C192.119 43.1369 192.094 41.9453 191.884 40.8337C191.196 37.1969 189.493 34.8563 186.046 32.8063C185.6 32.5415 183.11 31.1877 180.512 29.7977C177.914 28.4079 175.522 27.0533 175.196 26.7877C173.9 25.7301 173.639 24.3128 173.724 18.7953C173.776 15.4179 173.806 15.0292 174.057 14.4765C174.208 14.1425 174.46 13.7557 174.616 13.6171C175.032 13.2482 176.003 13.178 176.749 13.4629C177.814 13.87 177.803 13.7986 177.881 20.4823L177.948 26.2857H185.034H192.119L192.116 18.188C192.112 10.2973 192.105 10.0601 191.815 8.91241C190.671 4.37551 188.061 2.8835 180.31 2.33582C178.072 2.17778 173.152 2.18142 170.863 2.34297ZM0 36.4754V70.351H11.4043H22.8087V64.8175V59.2841H18.5573H14.306V30.9419V2.5998H7.15301H0V36.4754ZM34.9553 2.72613C34.9553 2.79563 33.0118 17.9847 30.6365 36.4796C28.2612 54.9746 26.3177 70.1622 26.3177 70.2301C26.3177 70.3035 29.0391 70.3394 33.0307 70.3185L39.7438 70.2835L40.2431 64.0752C40.5176 60.6607 40.7461 57.6696 40.7506 57.4283L40.7587 56.9897H43.5832H46.4077L46.4868 57.6983C46.5302 58.0879 46.746 60.745 46.9661 63.6029C47.1864 66.4607 47.4041 69.1481 47.45 69.575L47.5333 70.351H54.3503H61.1673L61.0997 70.0473C61.0624 69.8804 59.0972 54.6365 56.7324 36.1721L52.4329 2.60061L43.6941 2.60021C38.3549 2.59994 34.9553 2.64893 34.9553 2.72613ZM129.371 3.10591C129.211 4.10194 120.791 69.8296 120.791 70.0875C120.791 70.3453 120.937 70.351 127.46 70.351H134.129L134.204 69.8449C134.245 69.5666 134.497 66.6969 134.763 63.4679C135.03 60.2389 135.276 57.4605 135.31 57.2934C135.372 56.9904 135.379 56.9897 138.137 56.9897C140.258 56.9897 140.901 57.029 140.901 57.1584C140.901 57.2513 141.144 60.1169 141.441 63.5267C141.738 66.9367 141.981 69.867 141.981 70.0387V70.351H148.796C154.085 70.351 155.612 70.314 155.612 70.1857C155.612 69.9484 146.977 3.268 146.899 2.90347L146.834 2.5998H138.143H129.453L129.371 3.10591ZM204.678 2.76851C204.65 2.86136 202.706 17.9687 200.359 36.3404C198.012 54.7122 196.062 69.8804 196.026 70.0473L195.96 70.351H202.711C206.424 70.351 209.461 70.3055 209.46 70.2498C209.456 69.9323 210.424 57.7923 210.483 57.4283L210.554 56.9897H213.314C214.833 56.9897 216.075 57.0433 216.075 57.1087C216.075 57.1742 216.318 60.0358 216.615 63.4679C216.912 66.9 217.155 69.8527 217.155 70.0295V70.351H223.97C229.661 70.351 230.786 70.3204 230.786 70.1656C230.786 70.0635 228.842 54.8508 226.467 36.3593C224.092 17.868 222.148 2.70737 222.148 2.66917C222.148 2.63112 218.229 2.5998 213.439 2.5998C206.589 2.5998 204.719 2.63584 204.678 2.76851ZM322.695 36.4669V70.351H329.916H337.136V59.0816V47.8123L338.857 47.8109C342.872 47.8079 346.874 47.4169 349.283 46.7923C352.466 45.9673 353.851 44.7286 354.729 41.9214C355.62 39.074 355.756 36.8607 355.756 25.1385C355.756 13.6461 355.617 11.2451 354.799 8.57365C353.701 4.98608 351.821 3.73322 346.314 2.91967C344.979 2.72249 343.218 2.68281 333.729 2.63651L322.695 2.5828V36.4669ZM365.478 2.78227C365.478 2.88269 363.565 18.0108 361.227 36.4004C358.889 54.7901 356.976 69.9519 356.976 70.0935C356.976 70.3434 357.173 70.351 363.648 70.351H370.321L370.395 69.7774C370.436 69.462 370.652 66.8352 370.875 63.9403C371.098 61.0453 371.317 58.3275 371.362 57.9007L371.443 57.1247H374.264C376.859 57.1247 377.086 57.1436 377.09 57.3608C377.106 58.1597 378.131 70.2267 378.188 70.2836C378.226 70.3221 381.292 70.3378 385 70.3185L391.742 70.2835L387.392 36.4754C385 17.8809 383.038 2.65203 383.033 2.63354C383.028 2.61505 379.076 2.5998 374.251 2.5998C366.969 2.5998 365.478 2.63085 365.478 2.78227ZM395.98 36.4669V70.351H403.201H410.421V59.0816V47.8123L412.142 47.8109C419.05 47.8056 424.164 46.8465 426.04 45.204C427.118 44.26 427.957 42.4715 428.424 40.1194C428.881 37.8227 428.933 35.9315 428.874 23.9914C428.811 11.421 428.807 11.3398 428.097 8.80808C427.051 5.08082 425.095 3.72445 419.598 2.91805C418.269 2.72302 416.466 2.68267 407.013 2.63651L395.98 2.5828V36.4669ZM434.579 36.4754V70.351H445.984H457.388V64.8175V59.2841H453.137H448.885V49.0269V38.7698H453.137H457.388V33.1688V27.5679H453.137H448.885V20.6173V13.6667H453.137H457.388V8.13327V2.5998H445.984H434.579V36.4754ZM463.056 36.4754V70.351H474.528H486V64.8175V59.2841H481.749H477.497V30.9419V2.5998H470.277H463.056V36.4754ZM340.231 13.8812C341.147 14.2477 341.118 13.8671 341.118 25.2973C341.118 35.4042 341.115 35.5147 340.839 35.8918C340.408 36.4812 339.716 36.7587 338.651 36.7687C338.139 36.7735 337.589 36.7357 337.428 36.6849L337.136 36.5921V25.1295V13.6667H338.416C339.27 13.6667 339.873 13.738 340.231 13.8812ZM413.525 13.9032C414.424 14.3521 414.401 14.063 414.402 25.206C414.402 33.0861 414.365 35.2983 414.226 35.6911C413.98 36.3859 413.192 36.7569 411.937 36.7687C411.424 36.7735 410.873 36.7357 410.713 36.6849L410.421 36.5921V25.1295V13.6667L411.737 13.667C412.719 13.6671 413.172 13.7269 413.525 13.9032ZM44.6671 33.1013C45.1842 39.5222 45.6389 45.0338 45.6773 45.3492L45.7472 45.9228H43.6578C42.0787 45.9228 41.5674 45.8816 41.5639 45.7541C41.551 45.2855 43.6651 20.801 43.6936 21.0897C43.7118 21.2752 44.1499 26.6805 44.6671 33.1013ZM139.22 33.8413C139.773 40.3723 140.226 45.7624 140.226 45.8193C140.226 45.8762 139.279 45.9228 138.121 45.9228H136.016L136.1 45.1467C136.146 44.7199 136.608 39.1607 137.125 32.7931C137.643 26.4253 138.076 21.1719 138.088 21.1188C138.126 20.9525 138.189 21.6715 139.22 33.8413ZM376.252 45.8558C376.212 45.8966 375.272 45.9132 374.165 45.8927L372.151 45.8553L373.195 33.6412C373.769 26.9234 374.249 21.336 374.26 21.2246C374.272 21.1133 374.742 26.593 375.304 33.4019C375.866 40.2108 376.293 45.8151 376.252 45.8558ZM214.374 33.0339C214.876 39.2691 215.32 44.7199 215.362 45.1467L215.439 45.9228H213.31H211.182L211.255 45.4167C211.295 45.1384 211.772 39.6431 212.314 33.2051C212.856 26.767 213.337 21.544 213.382 21.5983C213.427 21.6526 213.873 26.7986 214.374 33.0339Z" fill="white"/>
<path d="M238.074 72.67V36.5V0.330048H275.796H313.518V36.5V72.67H275.796H238.074Z" fill="#DE1019"/>
<path d="M274.706 15.1511C273.377 14.5291 271.703 14.2478 268.441 14.098C266.845 14.0247 263.277 13.964 260.512 13.963L255.484 13.9613V36.5V59.0388H262.353C270.902 59.0388 272.765 58.8734 274.748 57.9392C275.761 57.4616 276.298 56.7645 276.749 55.3398C277.347 53.4495 277.368 52.7486 277.317 35.6902C277.271 20.5601 277.253 19.5039 277.02 18.6202C276.471 16.5323 275.932 15.7248 274.706 15.1511Z" fill="white"/>
<path d="M296.243 21.3842V17.6727V13.9613H288.685H281.127V36.5V59.0388H288.685H296.243V55.3273V51.6158H293.409H290.575V44.8002V37.9846H293.409H296.243V34.2731V30.5617H293.409H290.575V25.9729V21.3842H293.409H296.243Z" fill="white"/>
<path d="M265.066 51.7813V36.568V21.3546L266.076 21.4057C267.737 21.4895 267.558 19.7202 267.599 36.4796L267.634 51.0256L267.288 51.3503C267.008 51.6139 266.766 51.6852 266.005 51.7282L265.066 51.7813Z" fill="#DE1019"/>
</svg>
