<svg width="507" height="77" viewBox="0 0 507 77" fill="none" xmlns="http://www.w3.org/2000/svg">
<path fill-rule="evenodd" clip-rule="evenodd" d="M99.4385 2.86368C95.8589 3.09177 92.7959 3.71295 91.338 4.50661C89.497 5.5085 88.521 7.53481 87.8977 11.6485C87.6866 13.0416 87.6568 15.6347 87.6089 36.7848C87.5463 64.4796 87.5726 65.2399 88.7136 68.6654C89.7198 71.6861 91.3607 72.9098 95.414 73.6618C98.6386 74.2602 104.039 74.5012 108.552 74.2482C114.099 73.9373 117.144 73.2421 118.935 71.8771C120.065 71.0158 121.101 68.6723 121.565 65.9292C121.941 63.7079 122.083 59.3581 122.039 51.357L121.998 43.7541H114.466H106.933L106.863 52.4834C106.798 60.4703 106.771 61.2512 106.545 61.666C106.241 62.222 105.924 62.4003 105.061 62.5026C104.043 62.6232 103.406 62.2987 103.02 61.4638L102.709 60.7902V38.4039C102.709 17.2962 102.724 15.9806 102.959 15.3699C103.252 14.6104 103.615 14.3985 104.621 14.3985C105.64 14.3985 106.261 14.7026 106.551 15.3438C106.762 15.8093 106.801 16.5901 106.863 21.5086L106.933 27.1404H114.466H121.998L122.04 22.4942C122.136 11.7365 121.475 7.66237 119.28 5.4671C117.815 4.00186 114.862 3.20961 109.538 2.8534C107.199 2.69684 101.972 2.70219 99.4385 2.86368ZM178.245 2.86706C173.202 3.2227 169.985 4.14012 168.713 5.58551C167.655 6.78663 166.938 8.68369 166.471 11.5122C166.165 13.3624 166.018 25.8778 166.275 28.0925C166.735 32.0461 168.096 34.8143 170.533 36.7534C171.025 37.1451 174.181 39.0161 177.547 40.9112C180.912 42.8063 183.956 44.5781 184.311 44.8484C185.647 45.8667 185.73 46.4661 185.678 54.7366C185.64 60.8212 185.621 61.2395 185.368 61.657C184.561 62.9915 182.377 63.0238 181.698 61.711C181.295 60.9324 181.211 59.3182 181.207 52.3074L181.202 45.3733H173.66H166.117L166.174 54.6305C166.235 64.6418 166.278 65.2837 167.061 67.9875C167.903 70.8909 168.942 72.0998 171.355 72.9803C173.953 73.9284 177.51 74.2962 184.018 74.2894C193.116 74.2799 196.044 73.6977 198.06 71.4976C198.91 70.5702 199.528 69.4869 199.861 68.341C200.377 66.5679 200.421 65.5023 200.421 54.8065C200.421 45.4237 200.395 44.1806 200.175 43.021C199.457 39.227 197.681 36.7852 194.085 34.6467C193.62 34.3705 191.023 32.9582 188.312 31.5081C185.602 30.0582 183.107 28.6451 182.767 28.368C181.414 27.2647 181.141 25.7862 181.23 20.0303C181.285 16.5069 181.316 16.1014 181.578 15.5249C181.736 15.1764 181.999 14.7729 182.162 14.6283C182.595 14.2435 183.608 14.1703 184.386 14.4675C185.498 14.8922 185.486 14.8177 185.567 21.7902L185.637 27.8444H193.029H200.421L200.417 19.3967C200.414 11.165 200.406 10.9177 200.104 9.72036C198.91 4.98742 196.187 3.43094 188.101 2.8596C185.766 2.69473 180.634 2.69853 178.245 2.86706ZM0 38.4743V73.8137H11.8971H23.7942V68.0411V62.2686H19.3592H14.9242V32.7018V3.13499H7.46209H0V38.4743ZM36.4657 3.26677C36.4657 3.33928 34.4383 19.1847 31.9603 38.4787C29.4823 57.7729 27.4549 73.6167 27.4549 73.6875C27.4549 73.7641 30.2938 73.8016 34.458 73.7798L41.4611 73.7433L41.982 67.2668C42.2684 63.7047 42.5068 60.5844 42.5114 60.3326L42.5199 59.8751H45.4664H48.4129L48.4954 60.6142C48.5408 61.0207 48.7659 63.7927 48.9955 66.774C49.2253 69.7553 49.4524 72.5588 49.5003 73.0041L49.5872 73.8137H56.6988H63.8103L63.7398 73.4969C63.7009 73.3227 61.6508 57.4202 59.1838 38.158L54.6986 3.13583L45.5821 3.13541C40.0122 3.13513 36.4657 3.18624 36.4657 3.26677ZM134.961 3.66297C134.794 4.70203 126.011 73.2698 126.011 73.5389C126.011 73.8078 126.162 73.8137 132.968 73.8137H139.925L140.003 73.2857C140.046 72.9954 140.309 70.0017 140.587 66.6332C140.864 63.2647 141.121 60.3662 141.157 60.1919C141.222 59.8758 141.228 59.8751 144.106 59.8751C146.318 59.8751 146.989 59.916 146.99 60.0511C146.99 60.1479 147.243 63.1374 147.553 66.6946C147.862 70.2519 148.116 73.3088 148.116 73.4879V73.8137H155.226C160.743 73.8137 162.336 73.7751 162.336 73.6412C162.336 73.3937 153.328 3.83206 153.246 3.45178L153.179 3.13499H144.113H135.046L134.961 3.66297ZM213.522 3.31098C213.493 3.40785 211.465 19.1679 209.016 38.3335C206.568 57.4992 204.534 73.3227 204.496 73.4969L204.428 73.8137H211.47C215.343 73.8137 218.512 73.7662 218.511 73.7081C218.506 73.377 219.516 60.7124 219.578 60.3326L219.652 59.8751H222.532C224.116 59.8751 225.412 59.931 225.412 59.9992C225.412 60.0675 225.665 63.0528 225.975 66.6332C226.284 70.2136 226.538 73.2939 226.538 73.4783V73.8137H233.648C239.585 73.8137 240.758 73.7817 240.758 73.6202C240.758 73.5138 238.731 57.6438 236.253 38.3533C233.775 19.0629 231.747 3.2472 231.747 3.20736C231.747 3.16765 227.659 3.13499 222.662 3.13499C215.516 3.13499 213.565 3.17258 213.522 3.31098ZM336.639 38.4655V73.8137H344.171H351.704V62.0574V50.3011L353.499 50.2996C357.687 50.2966 361.862 49.8887 364.375 49.2371C367.696 48.3764 369.14 47.0842 370.057 44.1557C370.987 41.1852 371.128 38.8763 371.128 26.6476C371.128 14.6586 370.983 12.1538 370.13 9.36696C368.984 5.62437 367.023 4.31738 361.278 3.46867C359.885 3.26297 358.048 3.22158 348.149 3.17329L336.639 3.11725V38.4655ZM381.271 3.32534C381.271 3.43009 379.275 19.2119 376.836 38.3961C374.396 57.5804 372.401 73.3974 372.401 73.5451C372.401 73.8058 372.607 73.8137 379.361 73.8137H386.322L386.399 73.2153C386.442 72.8863 386.667 70.146 386.9 67.126C387.133 64.1059 387.362 61.2706 387.409 60.8254L387.493 60.0159H390.436C393.143 60.0159 393.379 60.0356 393.384 60.2622C393.4 61.0956 394.47 73.684 394.529 73.7434C394.569 73.7836 397.767 73.7999 401.636 73.7798L408.67 73.7433L404.131 38.4743C401.635 19.0764 399.589 3.18948 399.584 3.17019C399.578 3.1509 395.456 3.13499 390.422 3.13499C382.826 3.13499 381.271 3.16737 381.271 3.32534ZM413.09 38.4655V73.8137H420.623H428.155V62.0574V50.3011L429.95 50.2996C437.157 50.2942 442.492 49.2935 444.449 47.5801C445.574 46.5954 446.449 44.7295 446.936 42.2758C447.413 39.8799 447.467 37.9069 447.405 25.4509C447.34 12.3373 447.336 12.2527 446.595 9.61152C445.504 5.72321 443.463 4.30823 437.729 3.46698C436.342 3.26353 434.461 3.22144 424.6 3.17329L413.09 3.11725V38.4655ZM453.357 38.4743V73.8137H465.254H477.152V68.0411V62.2686H472.717H468.282V51.5682V40.8678H472.717H477.152V35.0249V29.1819H472.717H468.282V21.931V14.6801H472.717H477.152V8.90755V3.13499H465.254H453.357V38.4743ZM483.065 38.4743V73.8137H495.032H507V68.0411V62.2686H502.565H498.13V32.7018V3.13499H490.597H483.065V38.4743ZM354.933 14.9038C355.888 15.2862 355.857 14.8892 355.857 26.8132C355.857 37.3569 355.854 37.4722 355.567 37.8655C355.117 38.4804 354.395 38.7699 353.284 38.7803C352.75 38.7854 352.176 38.7459 352.009 38.6929L351.704 38.5961V26.6382V14.6801H353.039C353.93 14.6801 354.559 14.7545 354.933 14.9038ZM431.393 14.9268C432.331 15.3951 432.308 15.0935 432.308 26.718C432.309 34.9386 432.27 37.2463 432.125 37.6562C431.868 38.381 431.046 38.768 429.737 38.7803C429.202 38.7854 428.627 38.7459 428.46 38.6929L428.155 38.5961V26.6382V14.6801L429.528 14.6804C430.553 14.6805 431.026 14.7429 431.393 14.9268ZM46.5971 34.9545C47.1366 41.6528 47.611 47.4025 47.651 47.7316L47.7239 48.3299H45.5443C43.897 48.3299 43.3635 48.287 43.3598 48.1539C43.3465 47.6651 45.5519 22.1226 45.5816 22.4238C45.6006 22.6174 46.0576 28.2562 46.5971 34.9545ZM145.236 35.7265C145.813 42.5396 146.285 48.1627 146.285 48.2219C146.285 48.2814 145.297 48.3299 144.089 48.3299H141.893L141.981 47.5204C142.029 47.075 142.51 41.2757 143.051 34.6329C143.591 27.99 144.043 22.5095 144.055 22.4542C144.094 22.2808 144.161 23.0308 145.236 35.7265ZM392.51 48.2601C392.468 48.3026 391.488 48.3199 390.332 48.2985L388.232 48.2595L389.321 35.5177C389.92 28.5096 390.42 22.6807 390.432 22.5646C390.444 22.4484 390.934 28.165 391.521 35.268C392.108 42.3711 392.553 48.2176 392.51 48.2601ZM223.638 34.8841C224.16 41.3888 224.624 47.075 224.668 47.5204L224.748 48.3299H222.527H220.307L220.383 47.802C220.425 47.5116 220.922 41.7789 221.488 35.0628C222.054 28.3464 222.555 22.8977 222.602 22.9545C222.649 23.0111 223.115 28.3794 223.638 34.8841Z" fill="white"/>
<path d="M248.361 76.2329V38.5V0.767151H287.713H327.065V38.5V76.2329H287.713H248.361Z" fill="#DE1019"/>
<path d="M286.576 16.2286C285.189 15.5797 283.443 15.2863 280.04 15.13C278.375 15.0535 274.653 14.9902 271.769 14.9892L266.524 14.9874V38.5V62.0126H273.69C282.608 62.0126 284.552 61.8402 286.62 60.8656C287.677 60.3673 288.237 59.6401 288.707 58.1539C289.332 56.1819 289.353 55.4506 289.299 37.6552C289.252 21.8714 289.233 20.7695 288.99 19.8476C288.417 17.6695 287.855 16.8271 286.576 16.2286Z" fill="white"/>
<path d="M309.044 22.731V18.8592V14.9874H301.159H293.275V38.5V62.0126H301.159H309.044V58.1408V54.269H306.087H303.13V47.1588V40.0487H306.087H309.044V36.1769V32.3051H306.087H303.13V27.5181V22.731H306.087H309.044Z" fill="white"/>
<path d="M276.52 54.4416V38.571V22.7002L277.573 22.7534C279.305 22.8409 279.119 20.9952 279.161 38.4788L279.199 53.6533L278.838 53.992C278.545 54.267 278.293 54.3413 277.498 54.3862L276.52 54.4416Z" fill="#DE1019"/>
</svg>
