<svg width="18" height="19" viewBox="0 0 18 19" fill="none" xmlns="http://www.w3.org/2000/svg">
<path d="M15 6C15 4.4087 14.3679 2.88258 13.2426 1.75736C12.1174 0.632141 10.5913 0 9 0C7.4087 0 5.88258 0.632141 4.75736 1.75736C3.63214 2.88258 3 4.4087 3 6C3 13 0 15 0 15H18C18 15 15 13 15 6Z" fill="#959698"/>
<path d="M11 17C10.7968 17.6083 10.505 18.1132 10.154 18.4642C9.80302 18.8153 9.40506 19 9 19C8.59494 19 8.19698 18.8153 7.84598 18.4642C7.49498 18.1132 7.20325 17.6083 7 17" fill="#959698"/>
<circle r="3" transform="matrix(1 0 0 -1 13.5 4.5)" fill="#DE1019" stroke="#0C0C10"/>
</svg>
